<svg xmlns="http://www.w3.org/2000/svg" width="640" height="220" viewBox="0 0 640 220" font-family="12px ui-monospace, SFMono-Regular, Menlo, monospace" font-size="12" role="img" aria-label="Posterior density of mu, one curve per chain"><title>Posterior density of mu</title><text x="340" y="18" text-anchor="middle" font-weight="bold" fill="currentColor">mu  density</text><line x1="56" y1="184" x2="624" y2="184" stroke="currentColor"/><line x1="56" y1="28" x2="56" y2="184" stroke="currentColor"/><line x1="52" y1="184" x2="56" y2="184" stroke="currentColor"/><text x="49" y="188" text-anchor="end" fill="currentColor">0</text><line x1="52" y1="153.7885774448041" x2="56" y2="153.7885774448041" stroke="currentColor"/><text x="49" y="157.7885774448041" text-anchor="end" fill="currentColor">0.02</text><line x1="52" y1="123.57715488960818" x2="56" y2="123.57715488960818" stroke="currentColor"/><text x="49" y="127.57715488960818" text-anchor="end" fill="currentColor">0.04</text><line x1="52" y1="93.36573233441229" x2="56" y2="93.36573233441229" stroke="currentColor"/><text x="49" y="97.36573233441229" text-anchor="end" fill="currentColor">0.06</text><line x1="52" y1="63.15430977921636" x2="56" y2="63.15430977921636" stroke="currentColor"/><text x="49" y="67.15430977921636" text-anchor="end" fill="currentColor">0.08</text><line x1="52" y1="32.94288722402044" x2="56" y2="32.94288722402044" stroke="currentColor"/><text x="49" y="36.94288722402044" text-anchor="end" fill="currentColor">0.1</text><line x1="186.6341505963845" y1="184" x2="186.6341505963845" y2="188" stroke="currentColor"/><text x="186.6341505963845" y="201" text-anchor="middle" fill="currentColor">0</text><line x1="344.96789243715074" y1="184" x2="344.96789243715074" y2="188" stroke="currentColor"/><text x="344.96789243715074" y="201" text-anchor="middle" fill="currentColor">10</text><line x1="503.30163427791695" y1="184" x2="503.30163427791695" y2="188" stroke="currentColor"/><text x="503.30163427791695" y="201" text-anchor="middle" fill="currentColor">20</text><text x="340" y="216" text-anchor="middle" fill="currentColor">mu</text><text x="14" y="106" text-anchor="middle" fill="currentColor" transform="rotate(-90 14 106)">density</text><path d="M56.00 183.68 L58.23 183.62 L60.45 183.55 L62.68 183.49 L64.91 183.41 L67.14 183.34 L69.36 183.27 L71.59 183.20 L73.82 183.14 L76.05 183.07 L78.27 183.02 L80.50 182.96 L82.73 182.91 L84.96 182.86 L87.18 182.82 L89.41 182.77 L91.64 182.71 L93.87 182.66 L96.09 182.59 L98.32 182.52 L100.55 182.43 L102.78 182.34 L105.00 182.24 L107.23 182.13 L109.46 182.02 L111.69 181.91 L113.91 181.80 L116.14 181.70 L118.37 181.61 L120.60 181.53 L122.82 181.46 L125.05 181.41 L127.28 181.36 L129.51 181.32 L131.73 181.29 L133.96 181.25 L136.19 181.21 L138.42 181.14 L140.64 181.06 L142.87 180.93 L145.10 180.77 L147.33 180.55 L149.55 180.27 L151.78 179.92 L154.01 179.50 L156.24 179.00 L158.46 178.40 L160.69 177.72 L162.92 176.95 L165.15 176.08 L167.37 175.11 L169.60 174.04 L171.83 172.88 L174.05 171.62 L176.28 170.26 L178.51 168.80 L180.74 167.25 L182.96 165.62 L185.19 163.90 L187.42 162.11 L189.65 160.25 L191.87 158.34 L194.10 156.38 L196.33 154.38 L198.56 152.36 L200.78 150.33 L203.01 148.30 L205.24 146.27 L207.47 144.24 L209.69 142.22 L211.92 140.22 L214.15 138.21 L216.38 136.20 L218.60 134.19 L220.83 132.16 L223.06 130.10 L225.29 128.03 L227.51 125.93 L229.74 123.80 L231.97 121.65 L234.20 119.48 L236.42 117.31 L238.65 115.14 L240.88 112.99 L243.11 110.85 L245.33 108.74 L247.56 106.65 L249.79 104.59 L252.02 102.55 L254.24 100.51 L256.47 98.46 L258.70 96.39 L260.93 94.26 L263.15 92.07 L265.38 89.79 L267.61 87.41 L269.84 84.92 L272.06 82.30 L274.29 79.56 L276.52 76.71 L278.75 73.74 L280.97 70.69 L283.20 67.55 L285.43 64.37 L287.65 61.15 L289.88 57.93 L292.11 54.73 L294.34 51.57 L296.56 48.49 L298.79 45.50 L301.02 42.64 L303.25 39.94 L305.47 37.43 L307.70 35.14 L309.93 33.11 L312.16 31.37 L314.38 29.96 L316.61 28.91 L318.84 28.25 L321.07 28.00 L323.29 28.18 L325.52 28.78 L327.75 29.82 L329.98 31.27 L332.20 33.11 L334.43 35.31 L336.66 37.82 L338.89 40.59 L341.11 43.58 L343.34 46.72 L345.57 49.97 L347.80 53.27 L350.02 56.57 L352.25 59.83 L354.48 63.02 L356.71 66.12 L358.93 69.10 L361.16 71.97 L363.39 74.72 L365.62 77.35 L367.84 79.87 L370.07 82.31 L372.30 84.67 L374.53 86.98 L376.75 89.26 L378.98 91.52 L381.21 93.77 L383.44 96.04 L385.66 98.32 L387.89 100.64 L390.12 103.00 L392.35 105.39 L394.57 107.83 L396.80 110.31 L399.03 112.84 L401.25 115.41 L403.48 118.01 L405.71 120.65 L407.94 123.31 L410.16 125.99 L412.39 128.67 L414.62 131.35 L416.85 134.01 L419.07 136.63 L421.30 139.22 L423.53 141.75 L425.76 144.21 L427.98 146.59 L430.21 148.88 L432.44 151.07 L434.67 153.16 L436.89 155.14 L439.12 157.01 L441.35 158.78 L443.58 160.44 L445.80 161.99 L448.03 163.45 L450.26 164.82 L452.49 166.11 L454.71 167.31 L456.94 168.46 L459.17 169.54 L461.40 170.56 L463.62 171.53 L465.85 172.46 L468.08 173.34 L470.31 174.18 L472.53 174.97 L474.76 175.71 L476.99 176.42 L479.22 177.07 L481.44 177.68 L483.67 178.24 L485.90 178.75 L488.13 179.23 L490.35 179.66 L492.58 180.05 L494.81 180.42 L497.04 180.75 L499.26 181.06 L501.49 181.34 L503.72 181.61 L505.95 181.86 L508.17 182.10 L510.40 182.32 L512.63 182.53 L514.85 182.73 L517.08 182.90 L519.31 183.07 L521.54 183.22 L523.76 183.35 L525.99 183.47 L528.22 183.57 L530.45 183.65 L532.67 183.73 L534.90 183.79 L537.13 183.84 L539.36 183.88 L541.58 183.91 L543.81 183.93 L546.04 183.95 L548.27 183.96 L550.49 183.98 L552.72 183.98 L554.95 183.99 L557.18 183.99 L559.40 183.99 L561.63 184.00 L563.86 184.00 L566.09 184.00 L568.31 184.00 L570.54 184.00 L572.77 184.00 L575.00 184.00 L577.22 184.00 L579.45 184.00 L581.68 184.00 L583.91 184.00 L586.13 184.00 L588.36 184.00 L590.59 184.00 L592.82 184.00 L595.04 184.00 L597.27 184.00 L599.50 184.00 L601.73 184.00 L603.95 184.00 L606.18 184.00 L608.41 184.00 L610.64 184.00 L612.86 184.00 L615.09 184.00 L617.32 184.00 L619.55 184.00 L621.77 184.00 L624.00 184.00" fill="none" stroke="#1f77b4" stroke-width="1.25" stroke-opacity="0.85"/><path d="M56.00 184.00 L58.23 184.00 L60.45 184.00 L62.68 184.00 L64.91 183.99 L67.14 183.99 L69.36 183.98 L71.59 183.98 L73.82 183.97 L76.05 183.96 L78.27 183.94 L80.50 183.92 L82.73 183.90 L84.96 183.86 L87.18 183.82 L89.41 183.77 L91.64 183.71 L93.87 183.63 L96.09 183.55 L98.32 183.44 L100.55 183.32 L102.78 183.19 L105.00 183.03 L107.23 182.86 L109.46 182.67 L111.69 182.46 L113.91 182.23 L116.14 181.98 L118.37 181.71 L120.60 181.42 L122.82 181.11 L125.05 180.78 L127.28 180.43 L129.51 180.07 L131.73 179.68 L133.96 179.28 L136.19 178.85 L138.42 178.41 L140.64 177.95 L142.87 177.47 L145.10 176.97 L147.33 176.46 L149.55 175.94 L151.78 175.39 L154.01 174.83 L156.24 174.25 L158.46 173.65 L160.69 173.01 L162.92 172.35 L165.15 171.66 L167.37 170.92 L169.60 170.13 L171.83 169.30 L174.05 168.40 L176.28 167.45 L178.51 166.43 L180.74 165.33 L182.96 164.16 L185.19 162.91 L187.42 161.57 L189.65 160.15 L191.87 158.63 L194.10 157.03 L196.33 155.32 L198.56 153.52 L200.78 151.61 L203.01 149.61 L205.24 147.50 L207.47 145.30 L209.69 143.02 L211.92 140.64 L214.15 138.20 L216.38 135.68 L218.60 133.10 L220.83 130.48 L223.06 127.81 L225.29 125.10 L227.51 122.35 L229.74 119.58 L231.97 116.77 L234.20 113.93 L236.42 111.05 L238.65 108.13 L240.88 105.17 L243.11 102.16 L245.33 99.11 L247.56 96.02 L249.79 92.90 L252.02 89.77 L254.24 86.62 L256.47 83.49 L258.70 80.40 L260.93 77.37 L263.15 74.42 L265.38 71.57 L267.61 68.87 L269.84 66.31 L272.06 63.94 L274.29 61.75 L276.52 59.77 L278.75 58.00 L280.97 56.45 L283.20 55.11 L285.43 53.97 L287.65 53.02 L289.88 52.25 L292.11 51.64 L294.34 51.16 L296.56 50.80 L298.79 50.52 L301.02 50.32 L303.25 50.17 L305.47 50.06 L307.70 49.97 L309.93 49.92 L312.16 49.88 L314.38 49.87 L316.61 49.90 L318.84 49.97 L321.07 50.10 L323.29 50.31 L325.52 50.62 L327.75 51.03 L329.98 51.59 L332.20 52.29 L334.43 53.17 L336.66 54.24 L338.89 55.50 L341.11 56.98 L343.34 58.67 L345.57 60.58 L347.80 62.70 L350.02 65.02 L352.25 67.52 L354.48 70.18 L356.71 72.96 L358.93 75.81 L361.16 78.72 L363.39 81.61 L365.62 84.47 L367.84 87.25 L370.07 89.91 L372.30 92.43 L374.53 94.81 L376.75 97.02 L378.98 99.08 L381.21 101.01 L383.44 102.82 L385.66 104.56 L387.89 106.24 L390.12 107.92 L392.35 109.62 L394.57 111.38 L396.80 113.22 L399.03 115.15 L401.25 117.18 L403.48 119.32 L405.71 121.55 L407.94 123.85 L410.16 126.21 L412.39 128.60 L414.62 130.98 L416.85 133.34 L419.07 135.64 L421.30 137.85 L423.53 139.98 L425.76 141.99 L427.98 143.89 L430.21 145.66 L432.44 147.33 L434.67 148.90 L436.89 150.38 L439.12 151.79 L441.35 153.15 L443.58 154.47 L445.80 155.78 L448.03 157.10 L450.26 158.42 L452.49 159.77 L454.71 161.15 L456.94 162.56 L459.17 164.00 L461.40 165.45 L463.62 166.91 L465.85 168.37 L468.08 169.82 L470.31 171.23 L472.53 172.60 L474.76 173.90 L476.99 175.14 L479.22 176.29 L481.44 177.36 L483.67 178.33 L485.90 179.20 L488.13 179.98 L490.35 180.67 L492.58 181.26 L494.81 181.78 L497.04 182.21 L499.26 182.58 L501.49 182.88 L503.72 183.13 L505.95 183.33 L508.17 183.49 L510.40 183.61 L512.63 183.71 L514.85 183.79 L517.08 183.84 L519.31 183.89 L521.54 183.92 L523.76 183.94 L525.99 183.96 L528.22 183.97 L530.45 183.98 L532.67 183.99 L534.90 183.99 L537.13 183.99 L539.36 183.99 L541.58 183.99 L543.81 183.98 L546.04 183.98 L548.27 183.97 L550.49 183.96 L552.72 183.95 L554.95 183.93 L557.18 183.92 L559.40 183.89 L561.63 183.86 L563.86 183.83 L566.09 183.80 L568.31 183.75 L570.54 183.71 L572.77 183.66 L575.00 183.60 L577.22 183.54 L579.45 183.49 L581.68 183.43 L583.91 183.37 L586.13 183.32 L588.36 183.27 L590.59 183.23 L592.82 183.20 L595.04 183.18 L597.27 183.17 L599.50 183.17 L601.73 183.19 L603.95 183.21 L606.18 183.24 L608.41 183.28 L610.64 183.33 L612.86 183.38 L615.09 183.44 L617.32 183.50 L619.55 183.55 L621.77 183.61 L624.00 183.66" fill="none" stroke="#ff7f0e" stroke-width="1.25" stroke-opacity="0.85"/><path d="M56.00 183.99 L58.23 183.99 L60.45 183.99 L62.68 183.98 L64.91 183.98 L67.14 183.97 L69.36 183.96 L71.59 183.94 L73.82 183.92 L76.05 183.90 L78.27 183.87 L80.50 183.83 L82.73 183.79 L84.96 183.73 L87.18 183.67 L89.41 183.59 L91.64 183.50 L93.87 183.40 L96.09 183.29 L98.32 183.16 L100.55 183.02 L102.78 182.86 L105.00 182.69 L107.23 182.50 L109.46 182.31 L111.69 182.09 L113.91 181.87 L116.14 181.63 L118.37 181.37 L120.60 181.10 L122.82 180.81 L125.05 180.51 L127.28 180.18 L129.51 179.83 L131.73 179.45 L133.96 179.04 L136.19 178.60 L138.42 178.13 L140.64 177.63 L142.87 177.09 L145.10 176.51 L147.33 175.89 L149.55 175.23 L151.78 174.53 L154.01 173.78 L156.24 172.99 L158.46 172.15 L160.69 171.25 L162.92 170.29 L165.15 169.26 L167.37 168.17 L169.60 166.99 L171.83 165.73 L174.05 164.38 L176.28 162.93 L178.51 161.38 L180.74 159.72 L182.96 157.97 L185.19 156.10 L187.42 154.13 L189.65 152.07 L191.87 149.91 L194.10 147.67 L196.33 145.36 L198.56 142.99 L200.78 140.57 L203.01 138.13 L205.24 135.68 L207.47 133.24 L209.69 130.84 L211.92 128.48 L214.15 126.20 L216.38 124.01 L218.60 121.93 L220.83 119.96 L223.06 118.13 L225.29 116.42 L227.51 114.85 L229.74 113.39 L231.97 112.04 L234.20 110.78 L236.42 109.58 L238.65 108.41 L240.88 107.24 L243.11 106.04 L245.33 104.78 L247.56 103.42 L249.79 101.93 L252.02 100.30 L254.24 98.51 L256.47 96.55 L258.70 94.41 L260.93 92.11 L263.15 89.66 L265.38 87.08 L267.61 84.39 L269.84 81.63 L272.06 78.82 L274.29 75.99 L276.52 73.19 L278.75 70.44 L280.97 67.77 L283.20 65.20 L285.43 62.77 L287.65 60.48 L289.88 58.36 L292.11 56.42 L294.34 54.67 L296.56 53.11 L298.79 51.74 L301.02 50.57 L303.25 49.59 L305.47 48.80 L307.70 48.19 L309.93 47.73 L312.16 47.43 L314.38 47.27 L316.61 47.22 L318.84 47.28 L321.07 47.43 L323.29 47.67 L325.52 47.98 L327.75 48.37 L329.98 48.84 L332.20 49.39 L334.43 50.03 L336.66 50.78 L338.89 51.65 L341.11 52.66 L343.34 53.83 L345.57 55.17 L347.80 56.69 L350.02 58.41 L352.25 60.32 L354.48 62.43 L356.71 64.74 L358.93 67.24 L361.16 69.92 L363.39 72.76 L365.62 75.75 L367.84 78.87 L370.07 82.10 L372.30 85.43 L374.53 88.83 L376.75 92.29 L378.98 95.79 L381.21 99.31 L383.44 102.83 L385.66 106.35 L387.89 109.84 L390.12 113.29 L392.35 116.68 L394.57 119.99 L396.80 123.21 L399.03 126.32 L401.25 129.31 L403.48 132.16 L405.71 134.86 L407.94 137.40 L410.16 139.78 L412.39 141.98 L414.62 144.02 L416.85 145.89 L419.07 147.61 L421.30 149.17 L423.53 150.61 L425.76 151.92 L427.98 153.13 L430.21 154.25 L432.44 155.30 L434.67 156.29 L436.89 157.24 L439.12 158.16 L441.35 159.05 L443.58 159.93 L445.80 160.80 L448.03 161.66 L450.26 162.52 L452.49 163.36 L454.71 164.19 L456.94 165.01 L459.17 165.81 L461.40 166.58 L463.62 167.33 L465.85 168.06 L468.08 168.75 L470.31 169.42 L472.53 170.06 L474.76 170.67 L476.99 171.27 L479.22 171.84 L481.44 172.40 L483.67 172.96 L485.90 173.50 L488.13 174.04 L490.35 174.58 L492.58 175.12 L494.81 175.67 L497.04 176.21 L499.26 176.76 L501.49 177.30 L503.72 177.83 L505.95 178.36 L508.17 178.88 L510.40 179.38 L512.63 179.86 L514.85 180.32 L517.08 180.75 L519.31 181.16 L521.54 181.53 L523.76 181.87 L525.99 182.18 L528.22 182.46 L530.45 182.71 L532.67 182.93 L534.90 183.12 L537.13 183.28 L539.36 183.42 L541.58 183.53 L543.81 183.63 L546.04 183.71 L548.27 183.78 L550.49 183.83 L552.72 183.87 L554.95 183.90 L557.18 183.93 L559.40 183.95 L561.63 183.96 L563.86 183.97 L566.09 183.98 L568.31 183.99 L570.54 183.99 L572.77 183.99 L575.00 184.00 L577.22 184.00 L579.45 184.00 L581.68 184.00 L583.91 184.00 L586.13 184.00 L588.36 184.00 L590.59 184.00 L592.82 184.00 L595.04 184.00 L597.27 184.00 L599.50 184.00 L601.73 184.00 L603.95 184.00 L606.18 184.00 L608.41 184.00 L610.64 184.00 L612.86 184.00 L615.09 184.00 L617.32 184.00 L619.55 184.00 L621.77 184.00 L624.00 184.00" fill="none" stroke="#2ca02c" stroke-width="1.25" stroke-opacity="0.85"/><path d="M56.00 183.99 L58.23 183.99 L60.45 183.99 L62.68 183.98 L64.91 183.97 L67.14 183.96 L69.36 183.95 L71.59 183.94 L73.82 183.92 L76.05 183.90 L78.27 183.87 L80.50 183.84 L82.73 183.80 L84.96 183.75 L87.18 183.70 L89.41 183.64 L91.64 183.58 L93.87 183.51 L96.09 183.42 L98.32 183.33 L100.55 183.23 L102.78 183.12 L105.00 182.99 L107.23 182.85 L109.46 182.69 L111.69 182.51 L113.91 182.29 L116.14 182.04 L118.37 181.76 L120.60 181.42 L122.82 181.03 L125.05 180.57 L127.28 180.05 L129.51 179.46 L131.73 178.79 L133.96 178.05 L136.19 177.23 L138.42 176.33 L140.64 175.37 L142.87 174.35 L145.10 173.27 L147.33 172.16 L149.55 171.01 L151.78 169.86 L154.01 168.70 L156.24 167.56 L158.46 166.44 L160.69 165.37 L162.92 164.34 L165.15 163.36 L167.37 162.44 L169.60 161.58 L171.83 160.79 L174.05 160.05 L176.28 159.36 L178.51 158.71 L180.74 158.10 L182.96 157.51 L185.19 156.92 L187.42 156.33 L189.65 155.71 L191.87 155.04 L194.10 154.31 L196.33 153.49 L198.56 152.56 L200.78 151.50 L203.01 150.29 L205.24 148.90 L207.47 147.32 L209.69 145.53 L211.92 143.52 L214.15 141.28 L216.38 138.81 L218.60 136.11 L220.83 133.19 L223.06 130.05 L225.29 126.72 L227.51 123.21 L229.74 119.56 L231.97 115.79 L234.20 111.93 L236.42 108.02 L238.65 104.08 L240.88 100.15 L243.11 96.26 L245.33 92.43 L247.56 88.69 L249.79 85.06 L252.02 81.56 L254.24 78.20 L256.47 74.99 L258.70 71.95 L260.93 69.07 L263.15 66.36 L265.38 63.82 L267.61 61.45 L269.84 59.23 L272.06 57.18 L274.29 55.28 L276.52 53.52 L278.75 51.91 L280.97 50.44 L283.20 49.11 L285.43 47.92 L287.65 46.87 L289.88 45.97 L292.11 45.21 L294.34 44.62 L296.56 44.18 L298.79 43.91 L301.02 43.81 L303.25 43.88 L305.47 44.13 L307.70 44.55 L309.93 45.13 L312.16 45.87 L314.38 46.77 L316.61 47.80 L318.84 48.96 L321.07 50.23 L323.29 51.61 L325.52 53.08 L327.75 54.63 L329.98 56.25 L332.20 57.93 L334.43 59.66 L336.66 61.44 L338.89 63.25 L341.11 65.10 L343.34 66.98 L345.57 68.87 L347.80 70.79 L350.02 72.73 L352.25 74.68 L354.48 76.65 L356.71 78.64 L358.93 80.67 L361.16 82.73 L363.39 84.83 L365.62 86.98 L367.84 89.19 L370.07 91.46 L372.30 93.80 L374.53 96.20 L376.75 98.65 L378.98 101.16 L381.21 103.70 L383.44 106.27 L385.66 108.85 L387.89 111.41 L390.12 113.96 L392.35 116.46 L394.57 118.91 L396.80 121.30 L399.03 123.63 L401.25 125.87 L403.48 128.05 L405.71 130.16 L407.94 132.21 L410.16 134.21 L412.39 136.17 L414.62 138.09 L416.85 139.98 L419.07 141.87 L421.30 143.74 L423.53 145.61 L425.76 147.47 L427.98 149.34 L430.21 151.19 L432.44 153.04 L434.67 154.86 L436.89 156.66 L439.12 158.42 L441.35 160.12 L443.58 161.77 L445.80 163.35 L448.03 164.85 L450.26 166.27 L452.49 167.61 L454.71 168.85 L456.94 170.00 L459.17 171.07 L461.40 172.05 L463.62 172.95 L465.85 173.78 L468.08 174.54 L470.31 175.25 L472.53 175.90 L474.76 176.51 L476.99 177.07 L479.22 177.60 L481.44 178.10 L483.67 178.56 L485.90 179.00 L488.13 179.41 L490.35 179.79 L492.58 180.15 L494.81 180.48 L497.04 180.78 L499.26 181.06 L501.49 181.32 L503.72 181.54 L505.95 181.75 L508.17 181.93 L510.40 182.09 L512.63 182.23 L514.85 182.35 L517.08 182.45 L519.31 182.54 L521.54 182.62 L523.76 182.69 L525.99 182.74 L528.22 182.78 L530.45 182.82 L532.67 182.85 L534.90 182.88 L537.13 182.90 L539.36 182.92 L541.58 182.93 L543.81 182.95 L546.04 182.97 L548.27 182.99 L550.49 183.02 L552.72 183.05 L554.95 183.09 L557.18 183.13 L559.40 183.18 L561.63 183.24 L563.86 183.29 L566.09 183.35 L568.31 183.41 L570.54 183.48 L572.77 183.54 L575.00 183.60 L577.22 183.65 L579.45 183.70 L581.68 183.75 L583.91 183.79 L586.13 183.83 L588.36 183.86 L590.59 183.89 L592.82 183.91 L595.04 183.93 L597.27 183.95 L599.50 183.96 L601.73 183.97 L603.95 183.98 L606.18 183.98 L608.41 183.99 L610.64 183.99 L612.86 183.99 L615.09 184.00 L617.32 184.00 L619.55 184.00 L621.77 184.00 L624.00 184.00" fill="none" stroke="#d62728" stroke-width="1.25" stroke-opacity="0.85"/></svg>
